<svg
          xmlns="http://www.w3.org/2000/svg"
          width="31"
          height="30"
          viewBox="0 0 31 30"
          fill="none"
        >
          <path
            d="M6.75 13.7496H21.575L17.0375 8.29961C16.8253 8.04434 16.7232 7.71524 16.7537 7.38471C16.7842 7.05417 16.9447 6.74929 17.2 6.53711C17.4553 6.32494 17.7844 6.22286 18.1149 6.25334C18.4454 6.28381 18.7503 6.44434 18.9625 6.69961L25.2125 14.1996C25.2545 14.2593 25.2922 14.3219 25.325 14.3871C25.325 14.4496 25.325 14.4871 25.4125 14.5496C25.4692 14.6929 25.4988 14.8455 25.5 14.9996C25.4988 15.1537 25.4692 15.3063 25.4125 15.4496C25.4125 15.5121 25.4125 15.5496 25.325 15.6121C25.2922 15.6773 25.2545 15.74 25.2125 15.7996L18.9625 23.2996C18.845 23.4407 18.6978 23.5542 18.5314 23.632C18.3651 23.7097 18.1836 23.7499 18 23.7496C17.7079 23.7502 17.4249 23.6485 17.2 23.4621C17.0734 23.3572 16.9688 23.2283 16.8921 23.0829C16.8154 22.9374 16.7682 22.7783 16.7531 22.6146C16.738 22.4509 16.7553 22.2858 16.8041 22.1288C16.8529 21.9718 16.9322 21.8259 17.0375 21.6996L21.575 16.2496H6.75C6.41848 16.2496 6.10054 16.1179 5.86612 15.8835C5.63169 15.6491 5.5 15.3311 5.5 14.9996C5.5 14.6681 5.63169 14.3501 5.86612 14.1157C6.10054 13.8813 6.41848 13.7496 6.75 13.7496Z"
            fill="white"
          />
        </svg>