<svg
              xmlns="http://www.w3.org/2000/svg"
              width="48"
              height="48"
              viewBox="0 0 48 48"
              fill="none"
            >
              <path
                fill-rule="evenodd"
                clip-rule="evenodd"
                d="M24 4C15.164 4 8 12.006 8 21C8 29.924 13.106 39.624 21.074 43.348C21.9898 43.7768 22.9887 43.9991 24 43.9991C25.0113 43.9991 26.0102 43.7768 26.926 43.348C34.894 39.624 40 29.924 40 21C40 12.006 32.836 4 24 4ZM24 24C25.0609 24 26.0783 23.5786 26.8284 22.8284C27.5786 22.0783 28 21.0609 28 20C28 18.9391 27.5786 17.9217 26.8284 17.1716C26.0783 16.4214 25.0609 16 24 16C22.9391 16 21.9217 16.4214 21.1716 17.1716C20.4214 17.9217 20 18.9391 20 20C20 21.0609 20.4214 22.0783 21.1716 22.8284C21.9217 23.5786 22.9391 24 24 24Z"
                fill="#EF6C42"></path>
            </svg>