<svg
              xmlns="http://www.w3.org/2000/svg"
              width="38"
              height="37"
              viewBox="0 0 38 37"
              fill="none"
            >
              <g clip-path="url(#clip0_28_159)">
                <path
                  fill-rule="evenodd"
                  clip-rule="evenodd"
                  d="M19.9435 3.61175L32.8446 10.8371C33.2233 11.0266 33.5418 11.3181 33.7643 11.679C33.9868 12.0399 34.1046 12.4558 34.1043 12.88V15.0704C34.1043 16.12 33.2543 16.9718 32.2071 16.9718H31.0688V29.1408H32.5865C32.9891 29.1408 33.3751 29.3011 33.6598 29.5863C33.9444 29.8716 34.1043 30.2585 34.1043 30.6619C34.1043 31.0654 33.9444 31.4523 33.6598 31.7375C33.3751 32.0228 32.9891 32.1831 32.5865 32.1831H5.26656C4.86402 32.1831 4.47796 32.0228 4.19333 31.7375C3.90869 31.4523 3.74878 31.0654 3.74878 30.6619C3.74878 30.2585 3.90869 29.8716 4.19333 29.5863C4.47796 29.3011 4.86402 29.1408 5.26656 29.1408H6.78433V16.9718H5.646C4.59873 16.9718 3.74878 16.12 3.74878 15.0704V12.88C3.74878 12.0859 4.15858 11.3558 4.82033 10.9421L17.9081 3.61175C18.2243 3.45325 18.573 3.37073 18.9265 3.37073C19.2801 3.37073 19.6273 3.45325 19.9435 3.61175ZM26.5154 16.9718H11.3377V29.1408H14.3732V20.0141H17.4088V29.1408H20.4443V20.0141H23.4799V29.1408H26.5154V16.9718ZM18.9265 9.36617C18.524 9.36617 18.138 9.52643 17.8533 9.8117C17.5687 10.097 17.4088 10.4839 17.4088 10.8873C17.4088 11.2907 17.5687 11.6776 17.8533 11.9629C18.138 12.2482 18.524 12.4084 18.9265 12.4084C19.3291 12.4084 19.7151 12.2482 19.9998 11.9629C20.2844 11.6776 20.4443 11.2907 20.4443 10.8873C20.4443 10.4839 20.2844 10.097 19.9998 9.8117C19.7151 9.52643 19.3291 9.36617 18.9265 9.36617Z"
                  fill="#EF6C42"></path>
              </g>
              <defs>
                <clipPath id="clip0_28_159">
                  <rect
                    width="36.4266"
                    height="36.507"
                    fill="white"
                    transform="translate(0.713257 0.23938)"></rect>
                </clipPath>
              </defs>
            </svg>