<svg
              xmlns="http://www.w3.org/2000/svg"
              width="37"
              height="36"
              viewBox="0 0 37 36"
              fill="none"
            >
              <path
                d="M17.285 2.04L6.785 6.705C5.705 7.185 5 8.265 5 9.45V16.5C5 24.825 10.76 32.61 18.5 34.5C26.24 32.61 32 24.825 32 16.5V9.45C32 8.265 31.295 7.185 30.215 6.705L19.715 2.04C18.95 1.695 18.05 1.695 17.285 2.04ZM14.435 24.435L10.55 20.55C10.4111 20.4111 10.301 20.2463 10.2258 20.0648C10.1507 19.8834 10.112 19.6889 10.112 19.4925C10.112 19.2961 10.1507 19.1016 10.2258 18.9202C10.301 18.7387 10.4111 18.5739 10.55 18.435C10.6889 18.2961 10.8537 18.186 11.0352 18.1108C11.2166 18.0357 11.4111 17.997 11.6075 17.997C11.8039 17.997 11.9984 18.0357 12.1798 18.1108C12.3613 18.186 12.5261 18.2961 12.665 18.435L15.5 21.255L24.32 12.435C24.4589 12.2961 24.6237 12.186 24.8052 12.1108C24.9866 12.0357 25.1811 11.997 25.3775 11.997C25.5739 11.997 25.7684 12.0357 25.9498 12.1108C26.1313 12.186 26.2961 12.2961 26.435 12.435C26.5739 12.5739 26.684 12.7387 26.7592 12.9202C26.8343 13.1016 26.873 13.2961 26.873 13.4925C26.873 13.6889 26.8343 13.8834 26.7592 14.0648C26.684 14.2463 26.5739 14.4111 26.435 14.55L16.55 24.435C16.4112 24.5741 16.2464 24.6844 16.0649 24.7597C15.8835 24.8349 15.689 24.8737 15.4925 24.8737C15.296 24.8737 15.1015 24.8349 14.9201 24.7597C14.7386 24.6844 14.5738 24.5741 14.435 24.435Z"
                fill="#EF6C42"></path>
            </svg>