<svg
              xmlns="http://www.w3.org/2000/svg"
              width="38"
              height="38"
              viewBox="0 0 38 38"
              fill="none"
            >
              <path
                d="M35.4665 9.29576C35.3026 9.19326 35.1154 9.13424 34.9225 9.12426C34.7296 9.11428 34.5373 9.15367 34.3638 9.23872C28.2552 12.2334 23.8925 10.8302 19.2809 9.34995C14.4301 7.80268 9.42147 6.19837 2.49045 9.58953C2.29904 9.6832 2.13768 9.82881 2.02474 10.0098C1.9118 10.1908 1.8518 10.4 1.85156 10.6134V27.7161C1.85154 27.9097 1.90065 28.1001 1.99429 28.2694C2.08792 28.4387 2.223 28.5813 2.38681 28.6839C2.55061 28.7864 2.73776 28.8455 2.93064 28.8556C3.12352 28.8657 3.31578 28.8264 3.48934 28.7415C9.59791 25.7467 13.9606 27.15 18.5794 28.6302C21.317 29.5073 24.106 30.4014 27.2591 30.4014C29.6909 30.4014 32.3432 29.8709 35.357 28.3964C35.5484 28.3027 35.7097 28.1571 35.8227 27.9761C35.9356 27.7951 35.9956 27.5859 35.9958 27.3725V10.2698C35.9976 10.0757 35.9499 9.88439 35.8572 9.71396C35.7646 9.54352 35.6301 9.39959 35.4665 9.29576ZM7.54322 22.4155C7.54322 22.7181 7.42329 23.0082 7.20981 23.2222C6.99634 23.4361 6.7068 23.5563 6.40489 23.5563C6.10299 23.5563 5.81345 23.4361 5.59997 23.2222C5.38649 23.0082 5.26656 22.7181 5.26656 22.4155V13.2887C5.26656 12.9862 5.38649 12.696 5.59997 12.482C5.81345 12.2681 6.10299 12.1479 6.40489 12.1479C6.7068 12.1479 6.99634 12.2681 7.20981 12.482C7.42329 12.696 7.54322 12.9862 7.54322 13.2887V22.4155ZM18.9265 23.5563C18.026 23.5563 17.1456 23.2887 16.3969 22.7873C15.6481 22.2858 15.0645 21.5731 14.7198 20.7393C14.3752 19.9054 14.285 18.9879 14.4607 18.1027C14.6364 17.2175 15.0701 16.4044 15.7069 15.7662C16.3437 15.1279 17.155 14.6933 18.0382 14.5173C18.9215 14.3412 19.837 14.4315 20.669 14.7769C21.501 15.1223 22.2122 15.7072 22.7125 16.4577C23.2128 17.2081 23.4799 18.0904 23.4799 18.9929C23.4799 20.2032 23.0002 21.3639 22.1462 22.2197C21.2923 23.0755 20.1342 23.5563 18.9265 23.5563ZM32.5865 24.6972C32.5865 24.9997 32.4666 25.2899 32.2531 25.5039C32.0396 25.7178 31.7501 25.838 31.4482 25.838C31.1463 25.838 30.8568 25.7178 30.6433 25.5039C30.4298 25.2899 30.3099 24.9997 30.3099 24.6972V15.5704C30.3099 15.2678 30.4298 14.9777 30.6433 14.7637C30.8568 14.5498 31.1463 14.4296 31.4482 14.4296C31.7501 14.4296 32.0396 14.5498 32.2531 14.7637C32.4666 14.9777 32.5865 15.2678 32.5865 15.5704V24.6972Z"
                fill="#EF6C42"></path>
            </svg>