<svg
              xmlns="http://www.w3.org/2000/svg"
              width="37"
              height="37"
              viewBox="0 0 37 37"
              fill="none"
            >
              <g clip-path="url(#clip0_28_124)">
                <path
                  d="M33.7505 0.69125C33.904 0.793934 34.0299 0.932831 34.117 1.09568C34.2041 1.25853 34.2498 1.44032 34.25 1.625V18.5C34.2499 18.7247 34.1826 18.9442 34.0567 19.1302C33.9308 19.3163 33.752 19.4604 33.5435 19.544L33.5367 19.5462L33.5233 19.553L33.4715 19.5732C33.1758 19.691 32.878 19.8035 32.5783 19.9107C31.9842 20.1245 31.1585 20.4125 30.2225 20.6982C28.3865 21.2653 25.9947 21.875 24.125 21.875C22.2192 21.875 20.642 21.245 19.2695 20.6938L19.2065 20.6712C17.78 20.0975 16.565 19.625 15.125 19.625C13.55 19.625 11.4395 20.1425 9.64175 20.6982C8.83696 20.9495 8.0394 21.2234 7.25 21.5195V35.375C7.25 35.6734 7.13147 35.9595 6.92049 36.1705C6.70952 36.3815 6.42337 36.5 6.125 36.5C5.82663 36.5 5.54048 36.3815 5.32951 36.1705C5.11853 35.9595 5 35.6734 5 35.375V1.625C5 1.32663 5.11853 1.04048 5.32951 0.829505C5.54048 0.618526 5.82663 0.5 6.125 0.5C6.42337 0.5 6.70952 0.618526 6.92049 0.829505C7.13147 1.04048 7.25 1.32663 7.25 1.625V2.2595C7.7585 2.08175 8.366 1.877 9.0275 1.6745C10.8635 1.112 13.2575 0.5 15.125 0.5C17.015 0.5 18.554 1.12325 19.8973 1.66775L19.994 1.70825C21.3935 2.273 22.613 2.75 24.125 2.75C25.7 2.75 27.8105 2.2325 29.6082 1.67675C30.6324 1.35606 31.6448 0.99883 32.6435 0.60575L32.6863 0.59L32.6952 0.5855H32.6975"
                  fill="#EF6C42"></path>
              </g>
              <defs>
                <clipPath id="clip0_28_124">
                  <rect
                    width="36"
                    height="36"
                    fill="white"
                    transform="translate(0.5 0.5)"></rect>
                </clipPath>
              </defs>
            </svg>