<svg
              xmlns="http://www.w3.org/2000/svg"
              width="38"
              height="38"
              viewBox="0 0 38 38"
              fill="none"
            >
              <path
                d="M9.88028 5.30273C10.2528 5.30278 10.6124 5.43957 10.8909 5.68715C11.1693 5.93472 11.3472 6.27587 11.3908 6.64589L11.4014 6.82386V11.6474C12.291 11.9623 13.0612 12.5451 13.6059 13.3158C14.1506 14.0864 14.4431 15.0069 14.4431 15.9506C14.4431 16.8943 14.1506 17.8148 13.6059 18.5855C13.0612 19.3561 12.291 19.939 11.4014 20.2539V31.1619C11.401 31.5496 11.2525 31.9225 10.9864 32.2044C10.7202 32.4863 10.3565 32.656 9.96942 32.6787C9.58238 32.7014 9.20128 32.5755 8.90397 32.3267C8.60666 32.0778 8.41559 31.7249 8.3698 31.3399L8.35915 31.1619V20.2554C7.5123 19.9556 6.7727 19.4127 6.23291 18.6946C5.69313 17.9765 5.37714 17.1151 5.3245 16.2183L5.31689 15.9506L5.3245 15.6829C5.37714 14.7861 5.69313 13.9247 6.23291 13.2067C6.7727 12.4886 7.5123 11.9456 8.35915 11.6458V6.82386C8.35915 6.42043 8.51941 6.03353 8.80468 5.74826C9.08994 5.463 9.47685 5.30273 9.88028 5.30273ZM19.007 5.30273C19.3796 5.30278 19.7392 5.43957 20.0176 5.68715C20.2961 5.93472 20.4739 6.27587 20.5175 6.64589L20.5282 6.82386V20.7741C21.4178 21.089 22.1879 21.6719 22.7327 22.4425C23.2774 23.2132 23.5698 24.1337 23.5698 25.0774C23.5698 26.0211 23.2774 26.9416 22.7327 27.7122C22.1879 28.4829 21.4178 29.0658 20.5282 29.3806V31.1619C20.5277 31.5496 20.3793 31.9225 20.1131 32.2044C19.847 32.4863 19.4832 32.656 19.0962 32.6787C18.7091 32.7014 18.328 32.5755 18.0307 32.3267C17.7334 32.0778 17.5423 31.7249 17.4966 31.3399L17.4859 31.1619V29.3822C16.6391 29.0824 15.8995 28.5394 15.3597 27.8214C14.8199 27.1033 14.5039 26.2419 14.4513 25.3451L14.4437 25.0774L14.4513 24.8097C14.5039 23.9129 14.8199 23.0515 15.3597 22.3334C15.8995 21.6153 16.6391 21.0724 17.4859 20.7726V6.82386C17.4859 6.42043 17.6462 6.03353 17.9314 5.74826C18.2167 5.463 18.6036 5.30273 19.007 5.30273ZM28.1338 5.30273C28.5064 5.30278 28.866 5.43957 29.1444 5.68715C29.4228 5.93472 29.6007 6.27587 29.6443 6.64589L29.6549 6.82386V7.08397C30.5445 7.39887 31.3147 7.98175 31.8594 8.75238C32.4041 9.52302 32.6966 10.4435 32.6966 11.3872C32.6966 12.3309 32.4041 13.2515 31.8594 14.0221C31.3147 14.7927 30.5445 15.3756 29.6549 15.6905V31.1619C29.6545 31.5496 29.506 31.9225 29.2399 32.2044C28.9737 32.4863 28.61 32.656 28.2229 32.6787C27.8359 32.7014 27.4548 32.5755 27.1575 32.3267C26.8602 32.0778 26.6691 31.7249 26.6233 31.3399L26.6127 31.1619V15.692C25.7658 15.3922 25.0262 14.8493 24.4864 14.1312C23.9466 13.4131 23.6307 12.5518 23.578 11.655L23.5704 11.3872L23.578 11.1195C23.6307 10.2227 23.9466 9.36136 24.4864 8.64327C25.0262 7.92518 25.7658 7.38225 26.6127 7.08245V6.82386C26.6127 6.42043 26.7729 6.03353 27.0582 5.74826C27.3435 5.463 27.7304 5.30273 28.1338 5.30273Z"
                fill="#EF6C42"></path>
            </svg>