<svg
              xmlns="http://www.w3.org/2000/svg"
              width="37"
              height="37"
              viewBox="0 0 37 37"
              fill="none"
            >
              <path
                d="M4.154 8.22053C3.5 8.96453 3.5 10.2425 3.5 12.7955V26.8865C3.5 28.6955 3.5 29.6 3.9725 30.281C4.4435 30.962 5.2685 31.2485 6.9185 31.82L8.8595 32.4935C9.911 32.858 10.7195 33.1385 11.399 33.3185C11.843 33.437 12.2495 33.089 12.2495 32.63V9.90503C12.2443 9.72286 12.179 9.54754 12.0636 9.40643C11.9483 9.26533 11.7895 9.16638 11.612 9.12503C11.0285 8.97653 10.3265 8.73353 9.365 8.40053C7.0355 7.59203 5.87 7.18853 4.985 7.59803C4.66756 7.74522 4.38448 7.95727 4.154 8.22053ZM19.43 5.72153L17.126 7.31903C16.2935 7.89653 15.6815 8.32103 15.161 8.62253C15.0384 8.69105 14.9358 8.79056 14.8637 8.91112C14.7916 9.03168 14.7524 9.16906 14.75 9.30953V31.88C14.75 32.435 15.326 32.783 15.794 32.483C16.2965 32.162 16.8725 31.763 17.57 31.28L19.874 29.6825C20.7065 29.105 21.3185 28.6805 21.839 28.379C21.9616 28.3105 22.0642 28.211 22.1363 28.0904C22.2084 27.9699 22.2476 27.8325 22.25 27.692V5.12003C22.25 4.56353 21.674 4.21703 21.206 4.51553C20.7035 4.83803 20.1275 5.23703 19.43 5.72153ZM30.08 5.18003L28.1405 4.50803C27.089 4.14353 26.2805 3.86303 25.601 3.68303C25.157 3.56453 24.7505 3.91253 24.7505 4.37153V27.0965C24.7557 27.2787 24.821 27.454 24.9364 27.5951C25.0517 27.7362 25.2105 27.8352 25.388 27.8765C25.9715 28.025 26.6735 28.2665 27.635 28.601C29.9645 29.4095 31.13 29.813 32.015 29.4035C32.3324 29.2563 32.6155 29.0443 32.846 28.781C33.5 28.037 33.5 26.759 33.5 24.206V10.115C33.5 8.30603 33.5 7.40003 33.0275 6.72053C32.5565 6.03953 31.7315 5.75303 30.0815 5.18153"
                fill="#EF6C42"></path>
            </svg>