<svg
              xmlns="http://www.w3.org/2000/svg"
              width="48"
              height="48"
              viewBox="0 0 48 48"
              fill="none"
            >
              <path
                d="M22.5 15.6941C20.628 16.2061 19.5 17.6441 19.5 19.0001C19.5 20.3561 20.628 21.7941 22.5 22.3041V15.6941ZM25.5 25.6961V32.3041C27.372 31.7941 28.5 30.3561 28.5 29.0001C28.5 27.6441 27.372 26.2061 25.5 25.6961Z"
                fill="#EF6C42"></path>
              <path
                fill-rule="evenodd"
                clip-rule="evenodd"
                d="M44 24C44 35.046 35.046 44 24 44C12.954 44 4 35.046 4 24C4 12.954 12.954 4 24 4C35.046 4 44 12.954 44 24ZM24 10.5C24.3978 10.5 24.7794 10.658 25.0607 10.9393C25.342 11.2206 25.5 11.6022 25.5 12V12.634C28.76 13.218 31.5 15.668 31.5 19C31.5 19.3978 31.342 19.7794 31.0607 20.0607C30.7794 20.342 30.3978 20.5 30 20.5C29.6022 20.5 29.2206 20.342 28.9393 20.0607C28.658 19.7794 28.5 19.3978 28.5 19C28.5 17.644 27.372 16.206 25.5 15.694V22.634C28.76 23.218 31.5 25.668 31.5 29C31.5 32.332 28.76 34.782 25.5 35.366V36C25.5 36.3978 25.342 36.7794 25.0607 37.0607C24.7794 37.342 24.3978 37.5 24 37.5C23.6022 37.5 23.2206 37.342 22.9393 37.0607C22.658 36.7794 22.5 36.3978 22.5 36V35.366C19.24 34.782 16.5 32.332 16.5 29C16.5 28.6022 16.658 28.2206 16.9393 27.9393C17.2206 27.658 17.6022 27.5 18 27.5C18.3978 27.5 18.7794 27.658 19.0607 27.9393C19.342 28.2206 19.5 28.6022 19.5 29C19.5 30.356 20.628 31.794 22.5 32.304V25.366C19.24 24.782 16.5 22.332 16.5 19C16.5 15.668 19.24 13.218 22.5 12.634V12C22.5 11.6022 22.658 11.2206 22.9393 10.9393C23.2206 10.658 23.6022 10.5 24 10.5Z"
                fill="#EF6C42"></path>
            </svg>