<?xml version="1.0" encoding="utf-8"?>
<!-- Generator: Adobe Illustrator 27.7.0, SVG Export Plug-In . SVG Version: 6.00 Build 0)  -->
<svg version="1.1" id="Layer_1" xmlns="http://www.w3.org/2000/svg" xmlns:xlink="http://www.w3.org/1999/xlink" x="0px" y="0px"
	 viewBox="0 0 33 32" style="enable-background:new 0 0 33 32;" xml:space="preserve">
<style type="text/css">
	.st0{fill:#FF5723;}
</style>
<path class="st0" d="M16.3,32c-8.8,0-16-7.2-16-16c0-8.8,7.2-16,16-16c8.8,0,16,7.2,16,16C32.3,24.8,25.1,32,16.3,32z M14.8,7.5V16
	c0,0.5,0.3,1,0.7,1.2l6,4c0.7,0.5,1.6,0.3,2.1-0.4c0.5-0.7,0.3-1.6-0.4-2.1l-5.3-3.6V7.5c0-0.8-0.7-1.5-1.5-1.5
	C15.5,6,14.8,6.7,14.8,7.5L14.8,7.5z"/>
</svg>
